<?xml version="1.0" encoding="utf-8"?>
<!-- Generator: Adobe Illustrator 19.2.1, SVG Export Plug-In . SVG Version: 6.00 Build 0)  -->
<svg version="1.1" id="Layer_1" xmlns="http://www.w3.org/2000/svg" xmlns:xlink="http://www.w3.org/1999/xlink" x="0px" y="0px"
	 viewBox="0 0 22 22" style="enable-background:new 0 0 22 22;" xml:space="preserve">
<style type="text/css">
	.st0{fill:#FFFFFF;}
</style>
<path id="Magnify_copy_3" class="st0" d="M1.6,18l4.7-4c0.4-0.4,0.9-0.6,1.4-0.6C5.1,10.2,5.5,5.5,8.6,2.8s7.9-2.3,10.6,0.8
	s2.3,7.9-0.8,10.6c-2.8,2.4-6.9,2.4-9.7,0c0,0.5-0.2,1.1-0.6,1.4l-4,4.7c-0.6,0.7-1.7,0.8-2.4,0.2c0,0-0.1,0-0.1-0.1
	C0.8,19.8,0.8,18.8,1.6,18C1.6,18.1,1.6,18,1.6,18z M13.5,13.5c2.8,0,5-2.2,5-5s-2.2-5-5-5s-5,2.2-5,5S10.7,13.5,13.5,13.5z"/>
</svg>
