<?xml version="1.0" encoding="utf-8"?>
<!-- Generator: Adobe Illustrator 21.0.0, SVG Export Plug-In . SVG Version: 6.00 Build 0)  -->
<svg version="1.1" id="Layer_1" xmlns="http://www.w3.org/2000/svg" xmlns:xlink="http://www.w3.org/1999/xlink" x="0px" y="0px"
	 width="240px" height="85px" viewBox="0 0 240 85" style="enable-background:new 0 0 240 85;" xml:space="preserve">
<style type="text/css">
	.st0{fill:#333333;}
	.st1{fill:#FFFFFF;}
	.st2{fill:#4A4949;}
	.st3{fill:#2196F3;}
</style>
<g>
	<path id="Main" class="st0" d="M66.25,58.56c-4.91,0-7.26,4.25-15.38,4.25s-10.9-4.33-15.3-4.33c0-4.53-4.29-7.13-4.29-15.42
		s4.26-10.45,4.26-15.47c4.88,0,7.04-4.28,15.33-4.28s10.71,4.34,15.3,4.34c0,4.18,4.29,7.08,4.29,15.42S66.25,53.83,66.25,58.56z
		 M65.92,27.89c-4.51,0-6.9-4.26-15.05-4.26S40.6,27.84,35.8,27.84c0,4.94-4.19,7.07-4.19,15.22s4.22,10.71,4.22,15.17
		c4.33,0,7.06,4.26,15.05,4.26S61.16,58.3,66,58.3c0-4.64,4.14-7.05,4.14-15.24S65.92,32,65.92,27.89z"/>
	<path id="Main_tail" class="st0" d="M35.8,27.82c0,0-1.94,0.07-3.22-1.21c-1.28-1.28-1.05-3.14-1.05-3.14s2-0.02,3.14,1.13
		C35.81,25.74,35.8,27.82,35.8,27.82z M34.43,24.75c-0.96-0.98-2.65-0.96-2.65-0.96s-0.04,1.51,1.04,2.6
		c1.08,1.09,2.64,1.11,2.64,1.11S35.39,25.73,34.43,24.75z"/>
	<path id="Main_tail-2" class="st0" d="M70.2,62.65c0,0-1.98,0.02-3.12-1.13c-1.14-1.14-1.12-3.22-1.12-3.22s1.93-0.07,3.2,1.21
		S70.2,62.65,70.2,62.65z M68.99,59.73c-1.07-1.09-2.7-1.11-2.7-1.11s-0.01,1.69,0.94,2.67s2.63,1.04,2.63,1.04
		S70.06,60.82,68.99,59.73z"/>
	<path id="Main_tail-3" class="st0" d="M34.66,61.4c-1.27,1.29-3.14,1.07-3.14,1.07s-0.03-2,1.1-3.15s3.22-1.15,3.22-1.15
		S35.93,60.11,34.66,61.4z M32.78,59.55c-0.97,0.97-0.94,2.58-0.94,2.58s1.51,0.18,2.59-0.91c1.08-1.09,1.09-2.73,1.09-2.73
		S33.75,58.58,32.78,59.55z"/>
	<path id="Main_tail-4" class="st0" d="M69.12,26.77c-1.14,1.14-3.22,1.15-3.22,1.15s-0.09-1.93,1.18-3.21
		c1.27-1.28,3.14-1.07,3.14-1.07S70.26,25.63,69.12,26.77z M69.9,23.98c0,0-1.59-0.1-2.67,0.98c-1.08,1.08-1.01,2.62-1.01,2.62
		s1.77-0.08,2.74-1.05C69.93,25.57,69.9,23.98,69.9,23.98z"/>
	<path id="_4" class="st0" d="M58.78,25.05c-0.76,0-1.45-0.41-1.45-1.31s0.94-1.09,1.04-1.09c0.1,0,0.77,0.05,0.87,0.59
		c0.08,0.2-0.02,0.42-0.22,0.5s-0.42-0.02-0.5-0.22c-0.07-0.18,0-0.38,0.17-0.47c-0.1-0.05-0.21-0.08-0.32-0.07
		c-0.44,0-0.72,0.42-0.72,0.76s0.32,0.99,1.12,0.99c0.8,0,1.2-0.67,1.2-1.43c0-0.76-0.69-1.58-1.6-1.58c-0.82,0-1.65,0.69-1.8,0.82
		c-0.49,0.66-1.35,1.08-2.68,1.08c-1.04,0-1.78-0.54-2.28-1.14c-0.21,0.38-0.44,0.75-0.69,1.1c-0.26-0.34-0.49-0.69-0.7-1.06
		c-0.49,0.59-1.22,1.1-2.24,1.1c-1.33,0-2.19-0.43-2.68-1.08c0,0.01-0.01,0.02-0.01,0.02s-0.92-0.84-1.83-0.84
		c-0.91,0-1.6,0.81-1.6,1.58s0.4,1.43,1.2,1.43s1.12-0.65,1.12-0.99c0-0.35-0.27-0.76-0.72-0.76c-0.11,0-0.22,0.02-0.32,0.07
		c0.19,0.11,0.25,0.34,0.14,0.53c-0.11,0.19-0.34,0.25-0.53,0.14c-0.17-0.1-0.24-0.3-0.17-0.48c0.11-0.55,0.78-0.59,0.87-0.59
		c0.1,0,1.04,0.19,1.04,1.09s-0.69,1.31-1.45,1.31s-1.52-0.61-1.52-1.72s1-1.92,1.93-1.92c0.83,0,1.17,0.26,1.49,0.45
		c-0.11-0.34-0.17-0.7-0.16-1.06c0-1.53,1.26-2.26,2.23-2.26c0.98,0,1.91,0.75,1.91,1.78s-0.67,1.63-1.44,1.63
		c-0.77,0-1.26-0.63-1.27-0.98c0-0.01,0-0.02,0-0.03c-0.13-0.21-0.07-0.49,0.14-0.62c0.21-0.13,0.49-0.07,0.62,0.14
		c0.13,0.21,0.07,0.49-0.14,0.62c-0.06,0.04-0.13,0.06-0.2,0.07c0.17,0.32,0.61,0.46,0.83,0.46c0.13,0,1.13-0.1,1.13-1.29
		s-1.28-1.47-1.61-1.47c-0.33,0-1.87,0.3-1.87,1.92s1.13,2.52,2.85,2.52c0.9,0,1.58-0.56,2.04-1.16c-0.34-0.68-0.66-1.51-0.66-2.32
		c-0.01-1.8,1.57-3.72,1.57-3.72s1.54,2.13,1.55,3.74c0,0.73-0.31,1.56-0.66,2.25c0.46,0.61,1.16,1.2,2.08,1.2
		c1.73,0,2.85-0.9,2.85-2.52s-1.53-1.92-1.87-1.92s-1.61,0.28-1.61,1.47s1,1.29,1.13,1.29c0.22,0,0.66-0.15,0.83-0.46
		c-0.25-0.02-0.43-0.24-0.41-0.49s0.24-0.43,0.49-0.41c0.25,0.02,0.43,0.24,0.41,0.49c-0.01,0.07-0.03,0.14-0.07,0.2
		c0,0.01,0,0.02,0,0.03c-0.01,0.34-0.49,0.98-1.27,0.98s-1.44-0.6-1.44-1.63s0.93-1.78,1.91-1.78c0.98,0,2.23,0.73,2.23,2.26
		c0,0.35-0.05,0.7-0.16,1.03c0.31-0.19,0.65-0.43,1.45-0.43c0.93,0,1.93,0.81,1.93,1.92S59.54,25.05,58.78,25.05z M50.91,23.02
		c0,0,0.22-0.33,0.48-0.82c-0.18-0.27-0.33-0.55-0.46-0.85c-0.13,0.32-0.29,0.62-0.49,0.91C50.58,22.51,50.74,22.77,50.91,23.02z
		 M52.1,19.86c0-1.37-1.17-3.13-1.17-3.13s-1.21,1.59-1.21,3.12c0,0.7,0.25,1.41,0.51,1.99c0.28-0.44,0.44-0.84,0.47-0.99
		c0.08-0.39,0.14-2.18,0.14-2.17c0-0.27,0.1-0.34,0.13-0.09c0.01,0.03,0.02,0.07,0.04,0.1c0-0.01,0.06,1.77,0.13,2.16
		c0.03,0.14,0.17,0.52,0.43,0.93C51.85,21.2,52.1,20.49,52.1,19.86z"/>
	<path id="_3" class="st0" d="M58.37,64.82c-0.8,0-1.14-0.24-1.45-0.43c0.11,0.33,0.16,0.68,0.16,1.03c0,1.53-1.26,2.26-2.23,2.26
		s-1.91-0.75-1.91-1.78c0-1.03,0.67-1.63,1.44-1.63c0.77,0,1.26,0.63,1.27,0.98c0,0.01,0,0.02,0,0.03c0.05,0.07,0.07,0.15,0.07,0.24
		c0,0.25-0.2,0.45-0.45,0.45c-0.25,0-0.45-0.2-0.45-0.45c0-0.23,0.18-0.43,0.41-0.45c-0.17-0.32-0.61-0.46-0.83-0.46
		c-0.13,0-1.13,0.1-1.13,1.29c0,1.19,1.28,1.47,1.61,1.47s1.87-0.3,1.87-1.92c0-1.62-1.13-2.52-2.85-2.52
		c-0.92,0-1.62,0.59-2.08,1.2c0.35,0.69,0.66,1.52,0.66,2.25c-0.01,1.61-1.54,3.74-1.54,3.74s-1.57-1.92-1.57-3.72
		c0-0.81,0.32-1.64,0.66-2.32c-0.46-0.59-1.14-1.16-2.04-1.16c-1.73,0-2.85,0.9-2.85,2.52c0,1.62,1.53,1.92,1.87,1.92
		s1.61-0.28,1.61-1.47c0-1.19-1-1.29-1.13-1.29c-0.22,0-0.66,0.15-0.83,0.46c0.25,0.02,0.43,0.24,0.41,0.49s-0.24,0.43-0.49,0.41
		c-0.25-0.02-0.43-0.24-0.41-0.49c0.01-0.07,0.03-0.14,0.07-0.2c0-0.01,0-0.02,0-0.03c0.01-0.34,0.49-0.98,1.27-0.98
		s1.44,0.6,1.44,1.63s-0.93,1.78-1.91,1.78s-2.23-0.73-2.23-2.26c0-0.36,0.05-0.72,0.16-1.06c-0.32,0.19-0.65,0.45-1.49,0.45
		c-0.93,0-1.93-0.81-1.93-1.92s0.76-1.72,1.52-1.72s1.45,0.41,1.45,1.31s-0.94,1.09-1.04,1.09c-0.1,0-0.77-0.05-0.87-0.59
		c-0.08-0.2,0.02-0.42,0.22-0.5s0.42,0.02,0.5,0.22c0.07,0.18,0,0.38-0.17,0.47c0.1,0.05,0.21,0.08,0.32,0.07
		c0.44,0,0.72-0.42,0.72-0.76s-0.32-0.99-1.12-0.99s-1.2,0.67-1.2,1.43c0,0.76,0.69,1.58,1.6,1.58s1.83-0.84,1.83-0.84
		s0,0.01,0.01,0.02c0.49-0.66,1.35-1.08,2.68-1.08c1.02,0,1.75,0.52,2.24,1.1c0.21-0.37,0.44-0.72,0.7-1.06
		c0.25,0.35,0.48,0.72,0.69,1.1c0.49-0.6,1.23-1.14,2.28-1.14c1.33,0,2.19,0.43,2.68,1.08c0.15,0.13,0.98,0.82,1.8,0.82
		c0.91,0,1.6-0.81,1.6-1.58s-0.4-1.43-1.2-1.43s-1.12,0.65-1.12,0.99c0,0.35,0.27,0.76,0.72,0.76c0.11,0,0.22-0.02,0.32-0.07
		c-0.19-0.11-0.25-0.34-0.14-0.53c0.11-0.19,0.34-0.25,0.53-0.14c0.17,0.1,0.24,0.3,0.17,0.48c-0.11,0.55-0.78,0.59-0.87,0.59
		c-0.1,0-1.04-0.19-1.04-1.09c0-0.89,0.69-1.31,1.45-1.31s1.52,0.61,1.52,1.72S59.3,64.82,58.37,64.82z M50.91,63.22
		c-0.17,0.25-0.33,0.51-0.47,0.77c0.2,0.28,0.36,0.59,0.49,0.91c0.12-0.3,0.27-0.59,0.46-0.85C51.13,63.55,50.91,63.22,50.91,63.22z
		 M51.58,64.45c-0.26,0.41-0.41,0.79-0.43,0.93c-0.08,0.39-0.09,1.41-0.09,1.4c0,0.16-0.03,1.04-0.13,1.03
		c-0.1,0.01-0.13-0.87-0.13-1.03c0,0.01-0.02-1.02-0.09-1.4c-0.03-0.15-0.19-0.55-0.47-0.99c-0.27,0.57-0.51,1.29-0.51,1.99
		c0,1.53,1.21,3.12,1.21,3.12s1.17-1.76,1.17-3.13C52.1,65.75,51.85,65.04,51.58,64.45L51.58,64.45z"/>
	<path id="_2" class="st0" d="M31.54,36.7c-0.89,0-1.09-0.94-1.09-1.04c0-0.1,0.05-0.77,0.59-0.87c0.2-0.08,0.42,0.02,0.5,0.22
		s-0.02,0.42-0.22,0.5c-0.18,0.07-0.38,0-0.47-0.17c-0.05,0.1-0.08,0.21-0.07,0.32c0,0.44,0.42,0.72,0.76,0.72
		c0.35,0,0.99-0.32,0.99-1.12s-0.67-1.2-1.43-1.2s-1.58,0.69-1.58,1.6c0,0.82,0.69,1.65,0.82,1.8c0.66,0.49,1.08,1.35,1.08,2.68
		c0,1.04-0.54,1.78-1.14,2.28c0.38,0.21,0.75,0.44,1.1,0.69c-0.34,0.26-0.69,0.49-1.06,0.7c0.59,0.49,1.1,1.22,1.1,2.24
		c0,1.33-0.43,2.19-1.08,2.68c0.01,0,0.02,0.01,0.02,0.01s-0.84,0.92-0.84,1.83s0.81,1.6,1.58,1.6c0.76,0,1.43-0.4,1.43-1.2
		s-0.65-1.12-0.99-1.12c-0.35,0-0.76,0.27-0.76,0.72c0,0.11,0.02,0.22,0.07,0.32c0.11-0.19,0.34-0.25,0.53-0.14s0.25,0.34,0.14,0.53
		c-0.1,0.17-0.3,0.24-0.48,0.17c-0.55-0.11-0.59-0.78-0.59-0.87c0-0.1,0.19-1.04,1.09-1.04c0.89,0,1.31,0.69,1.31,1.45
		c0,0.76-0.61,1.52-1.72,1.52s-1.92-1-1.92-1.93c0-0.83,0.26-1.17,0.45-1.49c-0.34,0.11-0.7,0.17-1.06,0.16
		c-1.53,0-2.26-1.26-2.26-2.23c0-0.98,0.75-1.91,1.78-1.91c1.03,0,1.63,0.67,1.63,1.44c0,0.77-0.63,1.26-0.98,1.27
		c-0.01,0-0.02,0-0.03,0c-0.21,0.13-0.49,0.07-0.62-0.14c-0.13-0.21-0.07-0.49,0.14-0.62c0.21-0.13,0.49-0.07,0.62,0.14
		c0.04,0.06,0.06,0.13,0.07,0.2c0.32-0.17,0.46-0.61,0.46-0.83c0-0.13-0.1-1.13-1.29-1.13c-1.19,0-1.47,1.28-1.47,1.61
		s0.3,1.87,1.92,1.87c1.62,0,2.52-1.13,2.52-2.85c0-0.9-0.56-1.58-1.16-2.04c-0.68,0.34-1.51,0.66-2.32,0.66
		c-1.8,0.01-3.72-1.57-3.72-1.57s2.13-1.54,3.74-1.54c0.73,0,1.56,0.31,2.25,0.66c0.61-0.46,1.2-1.16,1.2-2.08
		c0-1.73-0.9-2.85-2.52-2.85c-1.62,0-1.92,1.53-1.92,1.87c0,0.33,0.28,1.61,1.47,1.61s1.29-1,1.29-1.13c0-0.22-0.15-0.66-0.46-0.83
		c-0.02,0.25-0.24,0.43-0.49,0.41c-0.25-0.02-0.43-0.24-0.41-0.49c0.02-0.25,0.24-0.43,0.49-0.41c0.07,0.01,0.14,0.03,0.2,0.07
		c0.01,0,0.02,0,0.03,0c0.34,0.01,0.98,0.49,0.98,1.27s-0.6,1.44-1.63,1.44c-1.03,0-1.78-0.93-1.78-1.91c0-0.98,0.73-2.23,2.26-2.23
		c0.35,0,0.7,0.05,1.03,0.16c-0.19-0.31-0.43-0.65-0.43-1.45c0-0.93,0.81-1.93,1.92-1.93c1.11,0,1.72,0.76,1.72,1.52
		S32.43,36.7,31.54,36.7z M27.66,41.93c-1.37,0-3.21,1.2-3.21,1.2s1.67,1.18,3.2,1.18c0.7,0,1.41-0.25,1.99-0.51
		c-0.44-0.28-0.84-0.44-0.99-0.47c-0.39-0.08-1.41-0.09-1.4-0.09c-0.16,0-1.04-0.03-1.03-0.13c-0.01-0.1,0.87-0.13,1.03-0.13
		c-0.01,0,1.02-0.02,1.4-0.09c0.14-0.03,0.52-0.17,0.93-0.43C29,42.18,28.28,41.93,27.66,41.93z M29.13,43.1
		c0.32,0.13,0.62,0.29,0.91,0.49c0.27-0.14,0.52-0.3,0.77-0.47c0,0-0.33-0.22-0.82-0.48C29.72,42.83,29.43,42.98,29.13,43.1
		L29.13,43.1z"/>
	<path id="_1" class="st0" d="M73.7,41.09c-1.03,0-1.63-0.67-1.63-1.44c0-0.77,0.63-1.26,0.98-1.27c0.01,0,0.02,0,0.03,0
		c0.07-0.05,0.15-0.07,0.24-0.07c0.25,0,0.45,0.2,0.45,0.45c0,0.25-0.2,0.45-0.45,0.45c-0.23,0-0.43-0.18-0.45-0.41
		c-0.32,0.17-0.46,0.61-0.46,0.83c0,0.13,0.1,1.13,1.29,1.13s1.47-1.28,1.47-1.61s-0.3-1.87-1.92-1.87s-2.52,1.13-2.52,2.85
		c0,0.92,0.59,1.62,1.2,2.08c0.69-0.35,1.52-0.66,2.25-0.66c1.61,0.01,3.74,1.54,3.74,1.54s-1.92,1.57-3.72,1.57
		c-0.81,0-1.64-0.32-2.32-0.66c-0.59,0.46-1.16,1.14-1.16,2.04c0,1.73,0.9,2.85,2.52,2.85c1.62,0,1.92-1.53,1.92-1.87
		s-0.28-1.61-1.47-1.61c-1.19,0-1.29,1-1.29,1.13c0,0.22,0.15,0.66,0.46,0.83c0.02-0.25,0.24-0.43,0.49-0.41
		c0.25,0.02,0.43,0.24,0.41,0.49c-0.02,0.25-0.24,0.43-0.49,0.41c-0.07-0.01-0.14-0.03-0.2-0.07c-0.01,0-0.02,0-0.03,0
		c-0.34-0.01-0.98-0.49-0.98-1.27s0.6-1.44,1.63-1.44c1.03,0,1.78,0.93,1.78,1.91c0,0.98-0.73,2.23-2.26,2.23
		c-0.36,0-0.72-0.05-1.06-0.16c0.19,0.32,0.45,0.65,0.45,1.49c0,0.93-0.81,1.93-1.92,1.93c-1.11,0-1.72-0.76-1.72-1.52
		s0.41-1.45,1.31-1.45c0.89,0,1.09,0.94,1.09,1.04c0,0.1-0.05,0.77-0.59,0.87c-0.04,0.02-0.09,0.03-0.14,0.03
		c-0.21,0-0.39-0.17-0.39-0.39s0.17-0.39,0.39-0.39c0.14,0,0.27,0.07,0.34,0.19c0.05-0.1,0.08-0.21,0.07-0.32
		c0-0.44-0.42-0.72-0.76-0.72s-0.99,0.32-0.99,1.12s0.67,1.2,1.43,1.2s1.58-0.69,1.58-1.6s-0.84-1.83-0.84-1.83s0.01,0,0.02-0.01
		c-0.66-0.49-1.08-1.35-1.08-2.68c0-1.02,0.52-1.75,1.1-2.24c-0.37-0.21-0.72-0.44-1.06-0.7c0.35-0.25,0.72-0.48,1.1-0.69
		c-0.6-0.49-1.14-1.23-1.14-2.28c0-1.33,0.43-2.19,1.08-2.68c0.13-0.15,0.82-0.98,0.82-1.8c0-0.91-0.81-1.6-1.58-1.6
		s-1.43,0.4-1.43,1.2s0.65,1.12,0.99,1.12c0.35,0,0.76-0.27,0.76-0.72c0-0.11-0.02-0.22-0.07-0.32c-0.11,0.19-0.34,0.25-0.53,0.14
		c-0.19-0.11-0.25-0.34-0.14-0.53c0.1-0.17,0.3-0.24,0.48-0.17c0.55,0.11,0.59,0.78,0.59,0.87c0,0.1-0.19,1.04-1.09,1.04
		c-0.89,0-1.31-0.69-1.31-1.45s0.61-1.52,1.72-1.52s1.92,1,1.92,1.93c0,0.8-0.24,1.14-0.43,1.45c0.33-0.11,0.68-0.16,1.03-0.16
		c1.53,0,2.26,1.26,2.26,2.23S74.73,41.09,73.7,41.09z M74.17,44.31c1.53,0,3.2-1.21,3.2-1.21s-1.84-1.17-3.21-1.17
		c-0.62,0-1.34,0.25-1.93,0.52c0.41,0.26,0.79,0.41,0.93,0.43c0.39,0.08,1.41,0.09,1.4,0.09c0.16,0,1.04,0.03,1.03,0.13
		c0.01,0.1-0.87,0.13-1.03,0.13c0.01,0-1.02,0.02-1.4,0.09c-0.15,0.03-0.55,0.19-0.99,0.47C72.76,44.06,73.48,44.31,74.17,44.31z
		 M71.02,43.12c0.25,0.17,0.51,0.33,0.77,0.47c0.28-0.2,0.59-0.36,0.91-0.49c-0.3-0.12-0.59-0.27-0.85-0.46
		C71.56,42.79,71.28,42.95,71.02,43.12L71.02,43.12z"/>
	<path id="Dots" class="st0" d="M68.46,43.36c-0.21,0-0.38-0.17-0.38-0.38c0-0.21,0.17-0.38,0.38-0.38c0.21,0,0.38,0.17,0.38,0.38
		C68.83,43.19,68.66,43.36,68.46,43.36C68.46,43.36,68.46,43.36,68.46,43.36z M68.26,40.37c-0.21,0.04-0.4-0.1-0.44-0.31
		c-0.04-0.21,0.1-0.4,0.31-0.44c0.21-0.04,0.4,0.1,0.44,0.31C68.61,40.14,68.47,40.33,68.26,40.37z M68.25,45.65
		c0.21,0.04,0.34,0.23,0.31,0.44s-0.23,0.34-0.44,0.31c-0.21-0.04-0.34-0.23-0.31-0.44C67.85,45.76,68.05,45.62,68.25,45.65
		C68.25,45.65,68.25,45.65,68.25,45.65z M67.53,37.33c-0.2,0.07-0.41-0.03-0.49-0.23c-0.07-0.2,0.03-0.41,0.23-0.49
		c0.2-0.07,0.41,0.03,0.49,0.23C67.82,37.04,67.72,37.26,67.53,37.33C67.53,37.33,67.53,37.33,67.53,37.33z M67.52,48.64
		c0.2,0.07,0.3,0.29,0.22,0.49c-0.07,0.2-0.29,0.3-0.49,0.22c-0.2-0.07-0.3-0.29-0.22-0.48C67.11,48.67,67.32,48.57,67.52,48.64
		C67.52,48.64,67.52,48.64,67.52,48.64z M65.92,52.08c-0.18-0.1-0.24-0.34-0.14-0.52c0.1-0.18,0.34-0.24,0.52-0.14
		c0.18,0.1,0.24,0.34,0.14,0.52C66.33,52.12,66.1,52.19,65.92,52.08C65.92,52.08,65.92,52.08,65.92,52.08L65.92,52.08z M66.29,34.52
		c-0.18,0.1-0.41,0.04-0.52-0.14c-0.1-0.18-0.04-0.41,0.14-0.52c0.18-0.1,0.41-0.04,0.52,0.14c0,0,0,0,0,0
		C66.54,34.19,66.47,34.42,66.29,34.52L66.29,34.52z M64.12,54.54c-0.16-0.13-0.18-0.37-0.05-0.53c0.13-0.16,0.37-0.18,0.53-0.05
		c0.16,0.13,0.18,0.37,0.05,0.53C64.52,54.66,64.28,54.68,64.12,54.54C64.12,54.54,64.12,54.54,64.12,54.54z M64.05,31.93
		c-0.13-0.16-0.11-0.4,0.05-0.53c0.16-0.13,0.4-0.11,0.53,0.05s0.11,0.4-0.05,0.53c0,0,0,0,0,0C64.43,32.11,64.19,32.09,64.05,31.93
		L64.05,31.93z M61.89,56.68c-0.13-0.16-0.11-0.4,0.05-0.53c0.16-0.13,0.4-0.11,0.53,0.05c0.13,0.16,0.11,0.4-0.05,0.53
		C62.26,56.87,62.02,56.84,61.89,56.68L61.89,56.68z M61.91,29.79c-0.16-0.13-0.18-0.37-0.05-0.53c0.13-0.16,0.37-0.18,0.53-0.05
		c0.16,0.13,0.18,0.37,0.05,0.53C62.31,29.9,62.07,29.93,61.91,29.79L61.91,29.79z M59.86,58.53c-0.18,0.11-0.41,0.04-0.52-0.14
		c-0.11-0.18-0.04-0.41,0.14-0.52c0.18-0.11,0.41-0.04,0.52,0.14c0,0,0,0,0,0C60.1,58.19,60.04,58.42,59.86,58.53
		C59.86,58.53,59.86,58.53,59.86,58.53z M59.47,28.08c-0.18-0.1-0.24-0.34-0.14-0.52c0.1-0.18,0.34-0.24,0.52-0.14
		c0.18,0.1,0.24,0.34,0.14,0.52c0,0,0,0,0,0C59.88,28.13,59.65,28.19,59.47,28.08C59.47,28.08,59.47,28.08,59.47,28.08L59.47,28.08z
		 M56.77,26.83c-0.2-0.07-0.3-0.29-0.23-0.49c0.07-0.2,0.29-0.3,0.49-0.23c0.2,0.07,0.3,0.29,0.23,0.49
		C57.19,26.8,56.97,26.9,56.77,26.83z M56.76,59.13c0.2-0.07,0.41,0.03,0.49,0.23c0.07,0.2-0.03,0.41-0.23,0.49
		c-0.2,0.07-0.41-0.03-0.49-0.23c0,0,0,0,0,0C56.46,59.42,56.56,59.21,56.76,59.13L56.76,59.13z M53.87,26.05
		c-0.21-0.04-0.34-0.23-0.31-0.44c0.04-0.21,0.23-0.34,0.44-0.31c0.21,0.04,0.34,0.23,0.31,0.44
		C54.27,25.95,54.07,26.08,53.87,26.05C53.87,26.05,53.87,26.05,53.87,26.05z M53.8,59.92c0.21-0.04,0.4,0.1,0.44,0.31
		c0.04,0.21-0.1,0.4-0.31,0.44c-0.21,0.04-0.4-0.1-0.44-0.31c0,0,0,0,0,0C53.46,60.15,53.6,59.96,53.8,59.92
		C53.8,59.92,53.8,59.92,53.8,59.92L53.8,59.92z M50.89,60.93c-0.21,0-0.38-0.17-0.38-0.38c0-0.21,0.17-0.38,0.38-0.38
		c0.21,0,0.38,0.17,0.38,0.38c0,0,0,0,0,0C51.26,60.76,51.09,60.93,50.89,60.93C50.89,60.93,50.89,60.93,50.89,60.93z M50.89,25.79
		c-0.21,0-0.38-0.17-0.38-0.38s0.17-0.38,0.38-0.38s0.38,0.17,0.38,0.38c0,0,0,0,0,0C51.26,25.62,51.09,25.79,50.89,25.79
		C50.89,25.79,50.89,25.79,50.89,25.79L50.89,25.79z M47.96,26.04c-0.21,0.04-0.4-0.1-0.44-0.31c-0.04-0.21,0.1-0.4,0.31-0.44
		s0.4,0.1,0.44,0.31c0,0,0,0,0,0C48.31,25.8,48.17,26,47.96,26.04C47.96,26.04,47.96,26.04,47.96,26.04L47.96,26.04z M47.9,59.91
		c0.21,0.04,0.34,0.23,0.31,0.44c-0.04,0.21-0.23,0.34-0.44,0.31c-0.21-0.04-0.34-0.23-0.31-0.44C47.5,60.01,47.69,59.87,47.9,59.91
		C47.9,59.91,47.9,59.91,47.9,59.91L47.9,59.91z M45.01,26.82c-0.2,0.07-0.41-0.03-0.49-0.23c-0.07-0.2,0.03-0.41,0.23-0.49
		c0.2-0.07,0.41,0.03,0.49,0.23c0,0,0,0,0,0C45.3,26.53,45.2,26.75,45.01,26.82C45.01,26.82,45.01,26.82,45.01,26.82z M44.99,59.13
		c0.2,0.07,0.3,0.29,0.23,0.49c-0.07,0.2-0.29,0.3-0.49,0.23c-0.2-0.07-0.3-0.29-0.23-0.49C44.58,59.16,44.8,59.06,44.99,59.13
		L44.99,59.13z M41.92,58.53c-0.18-0.1-0.24-0.34-0.14-0.52c0.1-0.18,0.34-0.24,0.52-0.14c0.18,0.1,0.24,0.34,0.14,0.52
		C42.33,58.57,42.1,58.64,41.92,58.53C41.92,58.53,41.92,58.53,41.92,58.53z M42.29,28.09c-0.18,0.11-0.41,0.04-0.52-0.14
		c-0.11-0.18-0.04-0.41,0.14-0.52c0.18-0.11,0.41-0.04,0.52,0.14c0,0,0,0,0,0C42.53,27.75,42.47,27.98,42.29,28.09L42.29,28.09z
		 M39.37,56.75c-0.16-0.13-0.18-0.37-0.05-0.53c0.13-0.16,0.37-0.18,0.53-0.05c0.16,0.13,0.18,0.37,0.05,0.53
		C39.77,56.86,39.53,56.88,39.37,56.75z M39.3,29.76c-0.13-0.16-0.11-0.4,0.05-0.53s0.4-0.11,0.53,0.05
		c0.13,0.16,0.11,0.4-0.05,0.53C39.68,29.94,39.44,29.92,39.3,29.76C39.3,29.76,39.3,29.76,39.3,29.76L39.3,29.76z M37.13,54.52
		c-0.13-0.16-0.11-0.4,0.05-0.53c0.16-0.13,0.4-0.11,0.53,0.05c0.13,0.16,0.11,0.4-0.05,0.53c0,0,0,0,0,0
		C37.5,54.7,37.26,54.68,37.13,54.52C37.13,54.52,37.13,54.52,37.13,54.52z M37.16,32c-0.16-0.13-0.18-0.37-0.05-0.53
		c0.13-0.16,0.37-0.18,0.53-0.05c0.16,0.13,0.18,0.37,0.05,0.53C37.56,32.11,37.32,32.13,37.16,32C37.16,31.99,37.16,31.99,37.16,32
		L37.16,32z M35.85,52.09c-0.18,0.1-0.41,0.04-0.52-0.14c-0.1-0.18-0.04-0.41,0.14-0.52c0.18-0.1,0.41-0.04,0.52,0.14c0,0,0,0,0,0
		C36.1,51.75,36.04,51.99,35.85,52.09L35.85,52.09z M35.47,34.53c-0.18-0.1-0.24-0.34-0.14-0.52c0.1-0.18,0.34-0.24,0.52-0.14
		c0.18,0.1,0.24,0.34,0.14,0.52C35.88,34.57,35.65,34.63,35.47,34.53L35.47,34.53z M34.25,37.31c-0.2-0.07-0.3-0.29-0.22-0.49
		c0.07-0.2,0.29-0.3,0.49-0.22c0.2,0.07,0.3,0.29,0.22,0.48C34.66,37.28,34.44,37.39,34.25,37.31
		C34.25,37.31,34.25,37.31,34.25,37.31L34.25,37.31z M34.24,48.63c0.2-0.07,0.41,0.03,0.49,0.23c0.07,0.2-0.03,0.41-0.23,0.49
		c-0.2,0.07-0.41-0.03-0.49-0.23c0,0,0,0,0,0C33.94,48.92,34.04,48.7,34.24,48.63z M33.51,40.3c-0.21-0.04-0.34-0.23-0.31-0.44
		c0.04-0.21,0.23-0.34,0.44-0.31c0.21,0.04,0.34,0.23,0.31,0.44C33.92,40.2,33.72,40.34,33.51,40.3L33.51,40.3z M33.69,42.98
		c0,0.21-0.17,0.38-0.38,0.38s-0.38-0.17-0.38-0.38c0-0.21,0.17-0.38,0.38-0.38c0,0,0,0,0,0C33.52,42.6,33.69,42.77,33.69,42.98
		C33.69,42.98,33.69,42.98,33.69,42.98z M33.5,45.59c0.21-0.04,0.4,0.1,0.44,0.31c0.04,0.21-0.1,0.4-0.31,0.44
		c-0.21,0.04-0.4-0.1-0.44-0.31C33.16,45.82,33.3,45.62,33.5,45.59C33.5,45.59,33.5,45.59,33.5,45.59L33.5,45.59z"/>
	<path id="round_copy_2" class="st0" d="M50.95,27.16c8.74,0,15.82,7.08,15.82,15.82S59.68,58.8,50.95,58.8s-15.82-7.08-15.82-15.82
		S42.21,27.16,50.95,27.16z M50.95,27.45c8.55,0,15.53,6.99,15.53,15.53s-6.99,15.53-15.53,15.53s-15.53-6.99-15.53-15.53
		S42.4,27.45,50.95,27.45z"/>
	<circle class="st0" cx="50.95" cy="42.98" r="12.58"/>
	<path class="st1" d="M62.76,46.23c0.01-0.02,0.02-0.03,0-0.04c-0.03-0.02-0.05-0.03-0.08-0.04c-0.11-0.05-0.23-0.09-0.35-0.11
		c-0.27-0.05-0.56-0.02-0.81,0.1c-0.25,0.12-0.47,0.28-0.66,0.48c-0.18,0.17-0.34,0.35-0.48,0.55c0.34,0.28,0.81,0.4,1.21,0.27
		c-0.08,0.03-0.21,0.07,0.01,0c0.05-0.02,0.04-0.01,0.02-0.01c0.25-0.11,0.48-0.27,0.66-0.48C62.48,46.72,62.63,46.49,62.76,46.23z
		 M61.66,48.78c0.21-0.17,0.4-0.37,0.56-0.59c0.01-0.01,0.03-0.03,0.02-0.04c-0.02-0.02-0.04-0.04-0.06-0.05
		c-0.09-0.08-0.2-0.14-0.31-0.2c-0.26-0.12-0.55-0.16-0.83-0.11c-0.29,0.06-0.56,0.18-0.8,0.35c-0.12,0.08-0.23,0.17-0.35,0.25
		c-0.06,0.05-0.11,0.09-0.17,0.14c-0.03,0.02-0.05,0.04-0.07,0.07c0.01,0.01,0.03,0.03,0.04,0.05c0.03,0.04,0.07,0.07,0.1,0.1
		c0.09,0.09,0.2,0.17,0.31,0.23c0.22,0.14,0.48,0.2,0.75,0.17c-0.06,0.01-0.29,0.03,0,0h0C61.15,49.11,61.43,48.98,61.66,48.78z
		 M61.43,50.01c-0.03-0.04-0.06-0.08-0.09-0.12c-0.09-0.1-0.18-0.19-0.29-0.27c-0.23-0.17-0.5-0.26-0.78-0.27
		c-0.3,0-0.6,0.07-0.87,0.19c-0.24,0.1-0.47,0.22-0.69,0.35c0.01,0.02,0.02,0.03,0.03,0.05c0.02,0.04,0.05,0.08,0.08,0.12
		c0.08,0.12,0.17,0.22,0.27,0.32c0.2,0.2,0.46,0.33,0.74,0.36c-0.19-0.02,0.19,0.02,0,0c0.57,0.05,1.13-0.29,1.56-0.67
		C61.4,50.05,61.42,50.03,61.43,50.01L61.43,50.01z M60.12,51.85c0.08-0.04,0.15-0.08,0.22-0.13c-0.03-0.07-0.06-0.13-0.1-0.2
		c-0.13-0.22-0.3-0.4-0.51-0.54c-0.23-0.15-0.51-0.23-0.79-0.24c-0.31,0-0.61,0.04-0.9,0.13c-0.13,0.03-0.26,0.07-0.39,0.12
		c-0.02,0-0.04,0.01-0.06,0.03c0.01,0.02,0.01,0.04,0.02,0.07c0.17,0.47,0.49,0.9,0.95,1.04c-0.38-0.12,0.19,0.06,0,0
		c0.24,0.07,0.48,0.08,0.72,0.03C59.59,52.1,59.87,52,60.12,51.85L60.12,51.85z M56.34,51.95c0.08,0.53,0.33,1.08,0.78,1.33
		c-0.04-0.02-0.12-0.07,0,0c0.03,0.02,0.02,0.01,0,0c0.28,0.14,0.59,0.21,0.9,0.18c0.28-0.02,0.55-0.07,0.81-0.16
		c0.06-0.02,0.11-0.04,0.16-0.07c0.01,0,0-0.02,0-0.03c-0.02-0.1-0.06-0.2-0.1-0.3c-0.1-0.23-0.24-0.44-0.42-0.61
		c-0.2-0.18-0.45-0.31-0.72-0.37c-0.27-0.05-0.54-0.07-0.81-0.06c-0.14,0-0.29,0.02-0.43,0.03c-0.06,0.01-0.11,0.01-0.17,0.02
		C56.33,51.93,56.34,51.93,56.34,51.95L56.34,51.95z M51.04,47.12c1.69,0,2.72-0.25,2.72-0.25l0.13-0.41
		c-0.41,0.1-0.89-0.01-1.15-0.33c-0.4,0.48-1.3,0.49-1.7,0c-0.4,0.49-1.3,0.48-1.7,0c-0.26,0.31-0.74,0.43-1.15,0.33l0.13,0.41
		C48.31,46.87,49.35,47.12,51.04,47.12L51.04,47.12z M55.49,50.13C55.5,50.27,55.49,50.18,55.49,50.13
		c0.03,0.33,0.13,0.64,0.29,0.93c0.1,0.19,0.23,0.36,0.38,0.5c0.32-0.42,0.54-1,0.47-1.55c-0.07-0.54-0.43-1-0.8-1.33
		c-0.02-0.01-0.04-0.03-0.06-0.05C55.57,49.08,55.44,49.62,55.49,50.13C55.49,50.11,55.48,50.1,55.49,50.13L55.49,50.13z
		 M54.51,34.08c0.31-0.02,0.6-0.15,0.84-0.35c-0.12-0.1-0.25-0.18-0.39-0.24c-0.47-0.24-1.04-0.09-1.34,0.34
		C53.74,33.9,53.87,33.96,54,34C54.16,34.06,54.34,34.09,54.51,34.08C54.4,34.09,54.57,34.08,54.51,34.08z M54.87,34.41
		c0.25,0.2,0.56,0.32,0.88,0.34c-0.24,0,0.12,0.01,0,0c0.18,0.01,0.36-0.03,0.53-0.1c0.12-0.04,0.23-0.11,0.34-0.18
		c-0.23-0.25-0.55-0.41-0.88-0.45C55.41,34.01,55.09,34.16,54.87,34.41L54.87,34.41z M56.01,35.19c0.1,0.09,0.2,0.16,0.31,0.23
		c0.17,0.11,0.35,0.18,0.55,0.21c-0.06-0.01,0.12,0.02,0,0c0.19,0.02,0.38,0,0.56-0.05c0.08-0.03,0.16-0.06,0.24-0.09
		c0.04-0.01,0.08-0.04,0.11-0.06c-0.01-0.01-0.01-0.02-0.02-0.03c-0.02-0.02-0.04-0.05-0.06-0.07c-0.07-0.07-0.14-0.14-0.22-0.19
		c-0.16-0.12-0.34-0.21-0.53-0.25C56.6,34.83,56.25,34.95,56.01,35.19L56.01,35.19z M56.99,36.16c0.11,0.11,0.22,0.22,0.35,0.3
		c0.15,0.1,0.31,0.18,0.48,0.23c-0.03-0.01-0.07-0.02,0,0c0.02,0,0.01,0,0.01,0c0.32,0.07,0.65,0.02,0.94-0.13
		c-0.1-0.15-0.22-0.28-0.35-0.39c-0.15-0.13-0.33-0.22-0.52-0.26C57.58,35.85,57.24,35.94,56.99,36.16L56.99,36.16z M57.81,37.26
		c0.21,0.27,0.48,0.49,0.8,0.63c-0.06-0.02,0.09,0.03,0.03,0.01c0.18,0.06,0.38,0.08,0.57,0.05c0.09-0.01,0.18-0.03,0.27-0.05
		c0.04-0.01,0.08-0.02,0.12-0.04c-0.16-0.34-0.44-0.6-0.78-0.76C58.49,36.98,58.1,37.06,57.81,37.26L57.81,37.26z M59.46,38.4
		c-0.19-0.08-0.41-0.11-0.62-0.06c-0.09,0.02-0.19,0.05-0.28,0.08c-0.03,0.01-0.06,0.03-0.09,0.04c-0.01,0.01-0.02,0.01-0.04,0.02
		c0.08,0.14,0.18,0.26,0.3,0.38c0.13,0.15,0.3,0.27,0.48,0.36c-0.06-0.03,0.06,0.03,0,0c0.32,0.14,0.68,0.17,1.01,0.07
		C60.08,38.91,59.81,38.56,59.46,38.4z M60.03,39.85c-0.2-0.14-0.44-0.21-0.68-0.19c-0.11,0.01-0.22,0.02-0.32,0.05
		c-0.05,0.01-0.1,0.03-0.15,0.05c0.08,0.16,0.18,0.31,0.29,0.45c0.12,0.16,0.27,0.29,0.43,0.4c-0.12-0.07,0.23,0.15,0,0
		c0.31,0.19,0.68,0.25,1.04,0.18C60.53,40.43,60.33,40.07,60.03,39.85z M60.62,41.76c-0.1-0.22-0.26-0.4-0.46-0.54
		c-0.18-0.11-0.39-0.17-0.61-0.18c-0.1,0-0.2,0.01-0.3,0.02c-0.05,0.01-0.09,0.02-0.13,0.03c0.13,0.36,0.35,0.69,0.64,0.95
		c-0.01-0.01-0.02-0.01,0.01,0.01c0.14,0.11,0.07,0.05,0.02,0.01c0.3,0.22,0.67,0.33,1.04,0.3C60.79,42.15,60.72,41.95,60.62,41.76
		L60.62,41.76z M60.26,42.71c-0.3-0.27-0.74-0.35-1.12-0.29c0.04,0.18,0.11,0.35,0.19,0.51c0.09,0.21,0.22,0.4,0.38,0.56
		c-0.05-0.05,0.11,0.11,0,0c0.29,0.28,0.67,0.44,1.06,0.45C60.76,43.49,60.58,43,60.26,42.71L60.26,42.71z M60.44,44.82
		c-0.13-0.69-0.76-1.16-1.46-1.1c0.03,0.19,0.08,0.38,0.15,0.56c0.08,0.22,0.19,0.42,0.33,0.61c-0.1-0.13,0.05,0.06,0,0
		c0.26,0.32,0.64,0.54,1.05,0.6C60.52,45.27,60.5,45.04,60.44,44.82L60.44,44.82z M59.75,45.54c-0.15-0.2-0.35-0.35-0.58-0.44
		c-0.11-0.05-0.23-0.09-0.35-0.11c-0.01,0-0.19-0.03-0.19-0.03c0.01,0.2,0.04,0.4,0.09,0.6c0.05,0.24,0.15,0.46,0.27,0.67
		c-0.09-0.14,0.18,0.29,0,0c0.23,0.37,0.6,0.65,1.02,0.76C60.1,46.5,60.03,45.93,59.75,45.54L59.75,45.54z M59.2,46.84
		c-0.23-0.4-0.67-0.66-1.08-0.77c-0.01,0.2,0,0.4,0.02,0.59c0.03,0.26,0.09,0.52,0.2,0.76c-0.04-0.08,0.15,0.32,0,0
		c0.12,0.24,0.28,0.46,0.49,0.63c0.1,0.08,0.2,0.15,0.31,0.22c0.01,0.01,0.18,0.08,0.18,0.09C59.45,47.87,59.46,47.28,59.2,46.84
		L59.2,46.84z M58.48,48.02c-0.19-0.45-0.61-0.77-1.03-0.95c-0.04,0.2-0.05,0.41-0.05,0.62c0,0.27,0.04,0.54,0.12,0.8
		c-0.01-0.04-0.03-0.08,0,0.01s0.02,0.05,0,0.01c0.16,0.46,0.47,0.85,0.89,1.1C58.63,49.13,58.69,48.51,58.48,48.02L58.48,48.02z
		 M57.57,48.96c-0.17-0.44-0.54-0.8-0.91-1.03l0,0c-0.06,0.22-0.11,0.44-0.12,0.66c-0.03,0.27-0.02,0.54,0.03,0.81
		c-0.01-0.03-0.01-0.05,0,0.01c0.05,0.25,0.02,0.09,0,0.01c0.06,0.29,0.18,0.56,0.36,0.8c0.12,0.17,0.27,0.33,0.43,0.45
		C57.65,50.19,57.79,49.51,57.57,48.96L57.57,48.96z M56.37,42.33c0.27-1.64-0.77-1.97-1.47-1.97c-0.44,0-0.87,0.16-1.21,0.45
		c0.03,0.3,0.02,0.61-0.03,0.91c-0.02,0.11-0.04,0.23-0.06,0.34c0.12-0.04,0.24-0.06,0.36-0.06c0.45,0,1.01,0.34,0.88,1.22
		c-0.12,0.78-0.97,1.57-1.47,1.97c0.39-0.04,0.78-0.1,1.16-0.19C55.19,44.43,56.19,43.41,56.37,42.33z M53.53,40.97
		c-0.06-1.39-1.04-2.36-2.49-2.36c-1.45,0-2.43,0.97-2.49,2.36c0,0,0,0,0,0c-0.01,0.4,0.03,0.8,0.12,1.18l0,0
		c0.24,1.07,0.6,2.12,1.07,3.11c0.36,0.01,0.75,0.02,1.18,0.02c-1-1.45-1.98-4.72,0.12-4.72c2.11,0,1.13,3.27,0.12,4.72
		c0.43,0,0.82-0.01,1.18-0.02c0.47-1,0.83-2.04,1.07-3.11l0,0C53.5,41.76,53.54,41.37,53.53,40.97
		C53.53,40.97,53.53,40.97,53.53,40.97L53.53,40.97z M51.92,38.12c-0.66-0.45-2.26-0.18-1.96,0.52c0.69-0.26,1.45-0.26,2.15,0
		C52.2,38.43,52.11,38.25,51.92,38.12L51.92,38.12z M48.47,42.07c-0.09-0.41-0.13-0.83-0.09-1.25c-0.34-0.29-0.76-0.45-1.21-0.45
		c-0.7,0-1.74,0.33-1.47,1.97c0.18,1.08,1.18,2.1,1.84,2.67l0.29,0.06c0.29,0.07,0.58,0.11,0.87,0.13c-0.5-0.4-1.35-1.19-1.47-1.97
		C47.08,42.24,47.82,41.85,48.47,42.07L48.47,42.07z M46.4,50.13c0.04-0.51-0.09-1.05-0.27-1.51c-0.02,0.02-0.04,0.04-0.06,0.05
		c-0.37,0.34-0.73,0.8-0.8,1.33c-0.07,0.55,0.14,1.13,0.47,1.55c0.15-0.15,0.28-0.32,0.38-0.5C46.28,50.77,46.37,50.46,46.4,50.13
		C46.39,50.33,46.41,50.03,46.4,50.13L46.4,50.13z M45.33,49.42C45.31,49.5,45.28,49.66,45.33,49.42c0.01-0.06,0.01-0.05,0-0.01
		c0.05-0.27,0.06-0.54,0.03-0.82c-0.02-0.22-0.06-0.45-0.12-0.66c0,0,0,0,0,0c-0.38,0.23-0.74,0.59-0.91,1.03
		c-0.21,0.55-0.08,1.23,0.22,1.72c0.17-0.13,0.31-0.28,0.43-0.45C45.14,49.98,45.26,49.71,45.33,49.42L45.33,49.42z M44.36,48.51
		C44.35,48.55,44.34,48.59,44.36,48.51c0.03-0.09,0.02-0.05,0-0.01c0.08-0.26,0.12-0.53,0.12-0.8c0.01-0.21-0.01-0.42-0.05-0.62
		c-0.41,0.18-0.83,0.5-1.03,0.95c-0.21,0.49-0.15,1.11,0.06,1.58C43.89,49.36,44.21,48.97,44.36,48.51L44.36,48.51z M43.55,47.43
		C43.4,47.75,43.59,47.35,43.55,47.43c0.11-0.24,0.18-0.5,0.2-0.76c0.02-0.2,0.03-0.39,0.02-0.59c-0.41,0.11-0.85,0.37-1.08,0.77
		c-0.25,0.45-0.25,1.03-0.11,1.52c0-0.01,0.16-0.08,0.18-0.09c0.11-0.06,0.21-0.14,0.31-0.22C43.26,47.88,43.43,47.67,43.55,47.43
		L43.55,47.43z M42.89,46.21C42.72,46.5,42.98,46.07,42.89,46.21c0.13-0.21,0.22-0.44,0.27-0.67c0.05-0.2,0.08-0.4,0.09-0.6
		c0,0-0.18,0.03-0.19,0.03c-0.12,0.03-0.23,0.07-0.34,0.11c-0.23,0.09-0.43,0.25-0.58,0.44c-0.29,0.39-0.35,0.96-0.27,1.44
		C42.3,46.86,42.66,46.59,42.89,46.21L42.89,46.21z M42.43,44.89C42.38,44.95,42.54,44.76,42.43,44.89
		c0.14-0.18,0.25-0.39,0.33-0.61c0.07-0.18,0.12-0.37,0.15-0.56c-0.7-0.06-1.33,0.41-1.46,1.1c-0.06,0.22-0.08,0.44-0.07,0.67
		C41.79,45.43,42.17,45.22,42.43,44.89L42.43,44.89z M42.17,43.49C42.06,43.6,42.23,43.44,42.17,43.49
		c0.16-0.16,0.29-0.35,0.38-0.56c0.08-0.16,0.14-0.33,0.19-0.51c-0.38-0.06-0.81,0.02-1.12,0.29c-0.32,0.29-0.49,0.78-0.52,1.23
		C41.51,43.93,41.89,43.77,42.17,43.49L42.17,43.49z M42.11,42.06c-0.05,0.04-0.12,0.1,0.02-0.01c0.03-0.02,0.03-0.02,0.01-0.01
		c0.29-0.26,0.51-0.58,0.64-0.95c-0.04-0.01-0.09-0.02-0.13-0.03c-0.1-0.02-0.2-0.02-0.3-0.02c-0.22,0-0.43,0.06-0.61,0.18
		c-0.2,0.14-0.36,0.33-0.46,0.54c-0.1,0.19-0.17,0.39-0.2,0.6C41.44,42.39,41.81,42.29,42.11,42.06L42.11,42.06z M42.29,40.61
		C42.06,40.76,42.41,40.54,42.29,40.61c0.17-0.11,0.31-0.24,0.43-0.4c0.11-0.14,0.21-0.29,0.29-0.45c-0.05-0.02-0.1-0.04-0.15-0.05
		c-0.1-0.03-0.21-0.05-0.32-0.05c-0.24-0.01-0.48,0.05-0.68,0.19c-0.3,0.21-0.5,0.58-0.61,0.94C41.61,40.87,41.98,40.8,42.29,40.61
		L42.29,40.61z M42.67,39.22C42.66,39.22,42.64,39.23,42.67,39.22C42.7,39.2,42.69,39.21,42.67,39.22c0.18-0.09,0.34-0.21,0.48-0.36
		c0.11-0.11,0.21-0.24,0.3-0.38c-0.01,0-0.03-0.01-0.04-0.02c-0.03-0.01-0.06-0.03-0.09-0.04c-0.09-0.04-0.18-0.06-0.28-0.08
		c-0.21-0.04-0.42-0.02-0.62,0.06c-0.35,0.16-0.62,0.51-0.77,0.88C42,39.38,42.35,39.36,42.67,39.22L42.67,39.22z M42.41,37.9
		c0.09,0.03,0.18,0.04,0.27,0.05c0.19,0.02,0.39,0.01,0.57-0.05c-0.05,0.02,0.03-0.01,0.03-0.01c0.32-0.14,0.59-0.35,0.8-0.63
		c-0.29-0.2-0.68-0.29-1.01-0.16c-0.34,0.15-0.62,0.42-0.78,0.76C42.33,37.88,42.37,37.89,42.41,37.9L42.41,37.9z M44.05,36.69
		C44.04,36.69,44.04,36.69,44.05,36.69c0.08-0.02,0.04-0.01,0.01,0c0.17-0.05,0.34-0.12,0.49-0.23c0.13-0.09,0.25-0.19,0.35-0.3
		c-0.25-0.22-0.59-0.31-0.91-0.25c-0.19,0.04-0.37,0.14-0.52,0.26c-0.14,0.11-0.26,0.24-0.35,0.39
		C43.4,36.71,43.73,36.75,44.05,36.69L44.05,36.69z M44.22,35.48c0.08,0.04,0.16,0.07,0.24,0.09c0.18,0.06,0.37,0.08,0.56,0.05
		c-0.12,0.02,0.06-0.01,0,0c0.2-0.03,0.38-0.1,0.55-0.21c0.11-0.06,0.22-0.14,0.31-0.23c-0.24-0.25-0.59-0.36-0.94-0.31
		c-0.19,0.04-0.38,0.13-0.53,0.25c-0.08,0.06-0.15,0.12-0.22,0.19c-0.02,0.02-0.04,0.05-0.06,0.07c-0.01,0.01-0.02,0.02-0.02,0.03
		C44.15,35.45,44.18,35.47,44.22,35.48L44.22,35.48z M45.6,34.65c0.17,0.07,0.35,0.1,0.53,0.1c-0.12,0.01,0.24,0,0,0
		c0.32-0.02,0.63-0.14,0.88-0.34c-0.21-0.25-0.53-0.4-0.86-0.39c-0.34,0.04-0.65,0.2-0.88,0.45C45.37,34.54,45.48,34.61,45.6,34.65
		L45.6,34.65z M47.38,34.08C47.32,34.08,47.5,34.09,47.38,34.08c0.17,0.01,0.35-0.02,0.51-0.08c0.13-0.04,0.26-0.1,0.38-0.17
		c-0.3-0.43-0.87-0.58-1.34-0.34c-0.14,0.06-0.27,0.14-0.39,0.24C46.78,33.93,47.07,34.05,47.38,34.08L47.38,34.08z M53.51,45.36
		c-1.3,0.14-3.71,0.13-4.95,0c-0.26-0.03-0.51-0.07-0.77-0.13c0.08,0.24,0.03,0.08,0.26,0.81c0.47,0.17,1.01,0.04,1.29-0.29
		c0.4,0.48,1.3,0.49,1.7,0c0.4,0.49,1.3,0.48,1.7,0c0.28,0.33,0.82,0.46,1.29,0.29c0.23-0.72,0.18-0.57,0.26-0.81
		C54.03,45.29,53.77,45.33,53.51,45.36z M42.89,53.23c0.05,0.02,0.11,0.05,0.17,0.07c0.26,0.09,0.54,0.14,0.81,0.16
		c0.31,0.02,0.62-0.04,0.9-0.18c-0.02,0.01-0.03,0.02,0,0c0.12-0.07,0.04-0.02,0,0c0.45-0.25,0.7-0.8,0.78-1.33
		c0-0.02,0.01-0.02-0.01-0.02c-0.05-0.01-0.11-0.02-0.17-0.02c-0.14-0.02-0.29-0.03-0.43-0.03c-0.27-0.01-0.54,0-0.81,0.06
		c-0.27,0.06-0.52,0.18-0.72,0.37c-0.18,0.17-0.33,0.38-0.42,0.61c-0.04,0.1-0.07,0.2-0.1,0.3C42.89,53.21,42.88,53.23,42.89,53.23
		L42.89,53.23z M41.77,51.85c0.26,0.15,0.54,0.25,0.83,0.3c0.24,0.05,0.49,0.04,0.72-0.03c-0.19,0.06,0.38-0.12,0,0
		c0.45-0.15,0.78-0.58,0.95-1.04c0.01-0.02,0.02-0.04,0.02-0.07c-0.02-0.01-0.04-0.02-0.06-0.03c-0.13-0.04-0.26-0.08-0.39-0.12
		c-0.29-0.09-0.6-0.13-0.9-0.13c-0.28,0-0.55,0.08-0.79,0.24c-0.21,0.14-0.38,0.33-0.51,0.54c-0.04,0.06-0.07,0.13-0.1,0.2
		C41.62,51.77,41.69,51.82,41.77,51.85L41.77,51.85z M40.51,50.07c0.43,0.38,0.99,0.73,1.56,0.67c-0.19,0.02,0.19-0.02,0,0
		c0.28-0.03,0.54-0.16,0.74-0.36c0.1-0.1,0.19-0.2,0.27-0.32c0.03-0.04,0.05-0.08,0.08-0.12c0.01-0.01,0.02-0.03,0.03-0.05
		c-0.22-0.13-0.45-0.25-0.69-0.35c-0.27-0.12-0.57-0.19-0.87-0.19c-0.28,0.01-0.55,0.11-0.78,0.27c-0.11,0.08-0.21,0.17-0.29,0.27
		c-0.03,0.04-0.06,0.08-0.09,0.12C40.47,50.03,40.49,50.05,40.51,50.07L40.51,50.07z M39.67,48.19c0.16,0.22,0.35,0.42,0.56,0.59
		c0.23,0.2,0.52,0.33,0.82,0.38h0c0.29,0.03,0.06,0.01,0,0c0.26,0.03,0.52-0.04,0.75-0.17c0.11-0.07,0.21-0.15,0.31-0.23
		c0.03-0.03,0.07-0.07,0.1-0.1c0.01-0.02,0.02-0.03,0.04-0.05c-0.02-0.03-0.04-0.05-0.07-0.07c-0.06-0.05-0.11-0.1-0.17-0.14
		c-0.11-0.09-0.23-0.18-0.35-0.25c-0.24-0.17-0.51-0.29-0.8-0.35c-0.28-0.05-0.57-0.01-0.83,0.12c-0.11,0.05-0.21,0.12-0.31,0.2
		c-0.02,0.02-0.04,0.04-0.06,0.05C39.64,48.16,39.66,48.18,39.67,48.19L39.67,48.19z M39.13,46.23c0.12,0.26,0.28,0.5,0.47,0.71
		c0.18,0.21,0.4,0.38,0.66,0.48c-0.03-0.01-0.03-0.01,0.01,0.01c0.22,0.07,0.09,0.03,0.01,0c0.41,0.13,0.88,0.01,1.22-0.27
		c-0.14-0.2-0.3-0.38-0.48-0.55c-0.19-0.2-0.41-0.36-0.66-0.48c-0.25-0.12-0.54-0.15-0.81-0.1c-0.12,0.02-0.24,0.06-0.35,0.11
		c-0.03,0.01-0.05,0.03-0.08,0.04C39.11,46.2,39.12,46.21,39.13,46.23L39.13,46.23z M38.9,44.22c0.02,0.06,0.04,0.12,0.06,0.18
		c0.16,0.47,0.42,0.94,0.83,1.2c-0.03-0.02-0.1-0.06,0,0c0.02,0.02,0.02,0.01,0,0c0.37,0.21,0.82,0.22,1.2,0.02
		c-0.11-0.23-0.25-0.46-0.4-0.67c-0.17-0.26-0.39-0.47-0.65-0.63c-0.23-0.12-0.48-0.18-0.74-0.17c-0.1,0-0.19,0.02-0.28,0.05
		C38.89,44.2,38.89,44.2,38.9,44.22L38.9,44.22z M38.97,42.21c0.02,0.25,0.08,0.49,0.16,0.73c0.09,0.28,0.24,0.54,0.45,0.76l0,0
		c0.3,0.28,0.72,0.39,1.12,0.29c-0.13-0.47-0.32-0.96-0.64-1.32C39.78,42.37,39.36,42.18,38.97,42.21L38.97,42.21z M39.5,40.33
		c-0.01,0-0.17-0.05-0.17-0.05c-0.02,0.25-0.01,0.49,0.02,0.74c0.03,0.28,0.13,0.55,0.29,0.79c-0.1-0.14,0.19,0.28,0,0
		c0.23,0.33,0.6,0.53,1,0.53c-0.05-0.49-0.14-1.01-0.41-1.42c-0.12-0.18-0.27-0.34-0.46-0.45C39.69,40.41,39.6,40.36,39.5,40.33
		L39.5,40.33z M40.13,38.55c-0.04-0.02-0.07-0.05-0.11-0.07c-0.01-0.01-0.03-0.01-0.04-0.02c-0.06,0.22-0.09,0.44-0.1,0.67
		c-0.02,0.28,0.02,0.56,0.12,0.82c-0.03-0.08,0.05,0.11,0.02,0.04c0.16,0.35,0.46,0.61,0.83,0.71c0.02-0.17,0.02-0.34,0.02-0.51
		c0-0.25-0.03-0.5-0.1-0.74c-0.07-0.25-0.19-0.47-0.36-0.66C40.31,38.7,40.22,38.62,40.13,38.55L40.13,38.55z M41.4,37.79
		c-0.06-0.38-0.25-0.76-0.54-0.99c-0.21,0.42-0.34,0.94-0.25,1.42c0-0.02-0.01-0.04,0,0s0,0.02,0,0c0.07,0.38,0.31,0.71,0.65,0.89
		c0.06-0.19,0.1-0.38,0.12-0.57C41.43,38.3,41.43,38.04,41.4,37.79L41.4,37.79z M41.97,35.33c-0.13,0.16-0.23,0.34-0.32,0.53
		c-0.11,0.23-0.17,0.49-0.18,0.75c0-0.16,0,0.32,0,0c0,0.38,0.15,0.74,0.43,1c0.09-0.16,0.16-0.33,0.22-0.51
		c0.08-0.21,0.13-0.43,0.15-0.65C42.31,36.06,42.2,35.66,41.97,35.33L41.97,35.33z M43.38,34.53c-0.01-0.1-0.03-0.21-0.06-0.31
		c-0.01-0.03-0.02-0.06-0.03-0.09c-0.01-0.01-0.01-0.02-0.01-0.03c-0.34,0.28-0.59,0.67-0.7,1.1c0.03-0.15-0.02,0.07,0,0
		c-0.08,0.37-0.01,0.75,0.2,1.06c0.26-0.31,0.46-0.68,0.58-1.07C43.4,34.97,43.41,34.75,43.38,34.53L43.38,34.53z M44.71,33.12
		c-0.38,0.19-0.68,0.5-0.86,0.88c0.01-0.01,0.01-0.02,0,0c-0.04,0.09-0.01,0.03,0,0c-0.15,0.34-0.16,0.71-0.03,1.06
		c0.12-0.09,0.23-0.19,0.33-0.3c0.15-0.15,0.28-0.33,0.38-0.51C44.71,33.9,44.78,33.5,44.71,33.12L44.71,33.12z M45.77,32.62
		c-0.18,0.1-0.34,0.24-0.47,0.4l-0.03,0.04c-0.2,0.29-0.29,0.64-0.25,0.99c0.14-0.07,0.28-0.14,0.41-0.23
		c0.16-0.11,0.31-0.24,0.43-0.39c0.23-0.29,0.37-0.65,0.4-1.02C46.09,32.46,45.92,32.53,45.77,32.62L45.77,32.62z M46.83,32.36
		C46.82,32.38,46.82,32.37,46.83,32.36c-0.27,0.24-0.43,0.56-0.47,0.91c0.15-0.03,0.3-0.07,0.45-0.13c0.19-0.07,0.36-0.17,0.52-0.3
		c0.16-0.13,0.29-0.28,0.39-0.46c0.07-0.12,0.13-0.25,0.18-0.38C47.51,32,47.14,32.12,46.83,32.36
		C46.86,32.34,46.9,32.31,46.83,32.36L46.83,32.36z M50.03,32.59c-0.12-0.05-0.25-0.09-0.38-0.12c-0.3-0.06-0.6-0.08-0.9-0.04
		c0.05-0.01-0.08,0.01-0.04,0.01c-0.44,0.09-0.85,0.28-1.19,0.57c-0.53,0.16-1.05,0.38-1.54,0.65c-0.52,0.28-1.01,0.61-1.47,0.99
		c-0.5,0.4-0.95,0.85-1.35,1.35c-0.14,0.18-0.28,0.36-0.42,0.54c-0.18,0.25-0.35,0.52-0.52,0.79c-0.12,0.2-0.23,0.4-0.33,0.61
		c-0.14,0.29-0.27,0.59-0.4,0.89c-0.24,0.62-0.42,1.25-0.55,1.9c-0.07,0.32-0.11,0.64-0.14,0.97c-0.03,0.27-0.05,0.54-0.05,0.81
		c-0.01,0.3-0.02,0.61,0,0.91c0.02,0.34,0.04,0.68,0.09,1.02c0.04,0.25,0.08,0.49,0.13,0.73c0.05,0.22,0.1,0.43,0.15,0.64
		c0.14,0.52,0.32,1.04,0.54,1.53c0.25,0.56,0.54,1.1,0.88,1.61c0.18,0.26,0.37,0.51,0.56,0.76c0.2,0.26,0.43,0.49,0.65,0.73
		c0.86,0.88,1.89,1.58,3.02,2.07c0.53,0.23,1.08,0.4,1.65,0.52c0.29,0.06,0.57,0.11,0.86,0.14c0.25,0.02,0.51,0.04,0.76,0.05
		c0.02,0,0.04,0,0.06,0c0.06-0.02,0.07-0.12,0.07-0.18c0-0.08-0.02-0.19-0.11-0.19c-0.1,0-0.21,0-0.31-0.01
		c-0.28-0.01-0.57-0.04-0.85-0.08c-0.57-0.08-1.14-0.22-1.68-0.43c-1.15-0.42-2.2-1.08-3.08-1.92c-0.91-0.86-1.65-1.88-2.18-3.02
		c-0.23-0.49-0.42-1-0.58-1.52c-0.14-0.48-0.25-0.96-0.32-1.45c-0.06-0.34-0.08-0.68-0.1-1.02c-0.02-0.32-0.01-0.65-0.01-0.97
		c0-0.25,0.02-0.5,0.05-0.75c0.04-0.39,0.1-0.78,0.18-1.17c0.14-0.65,0.34-1.28,0.59-1.89c0.21-0.52,0.47-1.02,0.77-1.49
		c0.15-0.24,0.3-0.48,0.48-0.7c0.18-0.22,0.36-0.44,0.54-0.66c0.41-0.47,0.87-0.89,1.37-1.26c0.47-0.35,0.97-0.66,1.5-0.92
		c0.26-0.13,0.52-0.24,0.79-0.34c0.11-0.04,0.21-0.08,0.32-0.11c0.45,0.05,0.9,0.04,1.35-0.04c0.27-0.05,0.53-0.13,0.78-0.23
		c0.17-0.06,0.33-0.13,0.49-0.21C50.13,32.63,50.08,32.6,50.03,32.59L50.03,32.59z M51.15,36.3c-0.06-0.06-0.16-0.06-0.22,0
		c-0.34,0.31-0.79,0.79-0.79,1.17c0,0.14,0.03,0.28,0.08,0.41c0.52-0.21,1.11-0.21,1.63,0c0.06-0.13,0.08-0.27,0.08-0.41
		C51.94,37.08,51.48,36.6,51.15,36.3L51.15,36.3z M53.14,32.42c-0.3-0.04-0.61-0.03-0.9,0.04c-0.13,0.03-0.26,0.07-0.38,0.12
		c-0.05,0.02-0.1,0.04-0.15,0.07c0.16,0.08,0.32,0.15,0.49,0.21c0.25,0.1,0.51,0.18,0.78,0.23c0.44,0.08,0.9,0.09,1.35,0.04
		c0.11,0.03,0.22,0.07,0.32,0.11c0.27,0.1,0.53,0.21,0.79,0.34c0.53,0.26,1.03,0.57,1.5,0.92c0.5,0.37,0.96,0.79,1.37,1.26
		c0.19,0.22,0.37,0.43,0.54,0.66c0.17,0.22,0.32,0.46,0.48,0.7c0.3,0.47,0.56,0.97,0.77,1.49c0.26,0.61,0.45,1.25,0.59,1.89
		c0.08,0.39,0.14,0.78,0.18,1.17c0.03,0.25,0.05,0.5,0.05,0.75c0.01,0.32,0.01,0.65-0.01,0.97c-0.03,0.34-0.05,0.69-0.1,1.02
		c-0.07,0.49-0.18,0.97-0.32,1.45c-0.16,0.52-0.35,1.03-0.58,1.52c-0.53,1.13-1.27,2.16-2.18,3.02c-0.89,0.84-1.94,1.5-3.08,1.92
		c-0.54,0.2-1.11,0.34-1.68,0.43c-0.28,0.04-0.56,0.07-0.85,0.08c-0.1,0-0.21,0-0.31,0.01c-0.09,0-0.11,0.11-0.11,0.19
		c0,0.06,0.01,0.16,0.07,0.18c0.02,0,0.04,0,0.06,0c0.25-0.01,0.51-0.02,0.76-0.05c0.29-0.03,0.58-0.08,0.86-0.14
		c0.56-0.12,1.12-0.29,1.65-0.52c1.13-0.49,2.16-1.19,3.02-2.07c0.22-0.23,0.45-0.47,0.65-0.73c0.2-0.25,0.38-0.5,0.56-0.76
		c0.34-0.51,0.64-1.05,0.88-1.61c0.22-0.49,0.4-1.01,0.54-1.53c0.06-0.21,0.11-0.43,0.15-0.64c0.05-0.24,0.09-0.49,0.13-0.73
		c0.05-0.34,0.07-0.68,0.09-1.02c0.02-0.3,0.01-0.61,0-0.91c-0.01-0.27-0.02-0.54-0.05-0.81c-0.04-0.32-0.08-0.65-0.14-0.97
		c-0.13-0.65-0.32-1.28-0.55-1.9c-0.13-0.3-0.25-0.6-0.4-0.89c-0.1-0.21-0.22-0.41-0.33-0.61c-0.16-0.27-0.33-0.54-0.52-0.79
		c-0.14-0.19-0.28-0.37-0.42-0.54c-0.4-0.49-0.85-0.95-1.35-1.35c-0.46-0.37-0.95-0.7-1.47-0.99c-0.49-0.27-1-0.49-1.54-0.65
		c-0.34-0.29-0.75-0.48-1.19-0.57C53.24,32.43,53.1,32.42,53.14,32.42z M55.07,32.37C55.07,32.37,55.08,32.37,55.07,32.37
		c-0.07-0.06-0.04-0.03-0.01-0.01c-0.3-0.24-0.67-0.36-1.05-0.36c0.04,0.13,0.1,0.26,0.18,0.38c0.1,0.18,0.23,0.33,0.38,0.46
		c0.16,0.13,0.33,0.23,0.52,0.3c0.14,0.06,0.29,0.1,0.45,0.13C55.5,32.92,55.33,32.6,55.07,32.37L55.07,32.37z M56.59,33.02
		c-0.13-0.16-0.29-0.3-0.47-0.4c-0.15-0.09-0.32-0.16-0.5-0.2c0.03,0.37,0.17,0.73,0.4,1.02c0.13,0.15,0.27,0.28,0.43,0.39
		c0.13,0.09,0.27,0.17,0.41,0.23c0.04-0.35-0.04-0.7-0.25-0.99C56.66,33.1,56.55,32.97,56.59,33.02z M58.04,34
		C58.03,33.97,58.03,33.98,58.04,34c-0.19-0.38-0.49-0.69-0.86-0.88c-0.06,0.38,0,0.78,0.18,1.12c0.1,0.19,0.23,0.36,0.38,0.51
		c0.1,0.11,0.21,0.21,0.33,0.3C58.2,34.71,58.19,34.33,58.04,34C58.06,34.03,58.08,34.09,58.04,34L58.04,34z M59.32,35.19
		c-0.11-0.43-0.36-0.81-0.7-1.1c0,0.01-0.01,0.02-0.01,0.03c-0.01,0.03-0.02,0.06-0.03,0.09c-0.03,0.1-0.05,0.2-0.07,0.31
		c-0.03,0.22-0.02,0.44,0.03,0.66c0.12,0.39,0.31,0.76,0.58,1.07C59.33,35.94,59.4,35.56,59.32,35.19
		C59.34,35.27,59.29,35.04,59.32,35.19L59.32,35.19z M60.41,36.61c-0.01-0.26-0.07-0.51-0.18-0.75c-0.08-0.19-0.19-0.37-0.32-0.53
		c-0.23,0.33-0.34,0.73-0.31,1.12c0.02,0.22,0.07,0.44,0.15,0.65c0.06,0.17,0.13,0.34,0.22,0.51
		C60.26,37.36,60.41,36.99,60.41,36.61C60.41,36.94,60.41,36.45,60.41,36.61L60.41,36.61z M61.03,36.8
		c-0.29,0.23-0.47,0.61-0.54,0.99c-0.03,0.25-0.03,0.51,0.01,0.76c0.03,0.19,0.07,0.38,0.12,0.57c0.34-0.19,0.57-0.51,0.65-0.89
		c0,0.02-0.01,0.04,0,0c0.01-0.04,0-0.02,0,0C61.37,37.74,61.24,37.22,61.03,36.8L61.03,36.8z M62.02,39.13
		c-0.01-0.23-0.04-0.45-0.1-0.67c-0.01,0.01-0.03,0.02-0.04,0.02c-0.04,0.02-0.08,0.04-0.11,0.07c-0.1,0.07-0.19,0.15-0.27,0.23
		c-0.17,0.19-0.3,0.42-0.36,0.66c-0.06,0.24-0.1,0.49-0.1,0.74c-0.01,0.17,0,0.34,0.02,0.51c0.37-0.1,0.67-0.36,0.83-0.71
		c-0.03,0.07,0.04-0.11,0.02-0.04C62,39.69,62.04,39.41,62.02,39.13L62.02,39.13z M62.56,40.28c0,0-0.16,0.04-0.17,0.05
		c-0.1,0.04-0.19,0.08-0.28,0.14c-0.18,0.12-0.34,0.27-0.46,0.45c-0.26,0.41-0.36,0.93-0.41,1.42c0.4,0,0.77-0.2,1-0.53
		c-0.19,0.28,0.1-0.14,0,0c0.15-0.24,0.25-0.51,0.29-0.79C62.57,40.77,62.58,40.53,62.56,40.28L62.56,40.28z M61.84,42.67
		c-0.32,0.35-0.51,0.85-0.64,1.32c0.4,0.1,0.82-0.01,1.12-0.29c-0.03,0.03-0.08,0.08,0,0c0.02-0.02,0.01-0.01,0,0
		c0.2-0.22,0.36-0.47,0.44-0.76c0.08-0.24,0.13-0.48,0.16-0.73C62.53,42.18,62.11,42.37,61.84,42.67L61.84,42.67z M62.98,44.19
		c-0.09-0.03-0.19-0.04-0.28-0.05c-0.26-0.01-0.51,0.04-0.74,0.17c-0.26,0.16-0.49,0.37-0.65,0.63c-0.15,0.21-0.28,0.44-0.4,0.67
		c0.38,0.2,0.83,0.19,1.2-0.02c-0.02,0.01-0.02,0.01,0,0c0.1-0.06,0.03-0.02,0,0c0.41-0.26,0.67-0.73,0.83-1.2
		c0.02-0.06,0.04-0.12,0.06-0.18C63,44.2,63,44.2,62.98,44.19L62.98,44.19z"/>
</g>
<path id="УЛ_copy" class="st2" d="M213.95,55.59c0.3,0.46,0.99,0.82,2.05,1.08v1.06h-9.15v-1.06c1.22-0.29,1.96-0.71,2.22-1.27
	c0.26-0.56,0.39-1.58,0.39-3.06V30.18h-6c-0.3,3.7-0.89,7.65-1.75,11.87s-1.76,7.54-2.7,9.99c-0.94,2.45-1.9,4.06-2.88,4.85
	c-0.99,0.79-2.1,1.19-3.33,1.19c-1.24,0-2.35-0.17-3.35-0.52V53.2h2.12c0.13,1.02,0.63,1.53,1.51,1.53c0.65,0,1.28-0.32,1.9-0.97
	s1.34-2.23,2.16-4.75c0.82-2.52,1.58-5.54,2.28-9.06c0.7-3.52,1.05-6.09,1.05-7.7c0-1.06-0.16-1.79-0.47-2.19
	c-0.32-0.4-0.89-0.64-1.71-0.74v-1.03H216v1.06c-1.07,0.26-1.75,0.61-2.05,1.05c-0.3,0.44-0.45,1.54-0.45,3.29v18.66
	C213.5,54.05,213.65,55.13,213.95,55.59z M189.09,35.05l-6.13,13.16c-1.86,3.98-3.46,6.65-4.8,7.99c-1.35,1.34-2.97,2.02-4.89,2.02
	c-1.11,0.01-2.21-0.16-3.26-0.5v-5.5h2.33c0.13,1.67,0.83,2.5,2.11,2.5c1.71,0,3.29-1.4,4.75-4.19l-7.01-15.36
	c-1.09-2.4-1.87-3.91-2.32-4.53c-0.45-0.62-1.08-1.06-1.89-1.32v-1.06h9.26v1.06c-1.38,0.16-2.07,0.73-2.07,1.73
	c0,0.92,0.42,2.33,1.27,4.23l4.88,10.94l4.32-9.97c0.92-2.13,1.38-3.73,1.38-4.81c0-1.27-0.62-1.97-1.86-2.11v-1.06h8.29v1.06
	c-0.74,0.24-1.41,0.68-1.91,1.27C191,31.23,190.18,32.71,189.09,35.05z M105.86,32.85c-0.31-0.72-0.64-1.27-0.98-1.64
	c-0.31-0.35-0.69-0.62-1.11-0.8c-0.4-0.16-0.99-0.24-1.78-0.24h-2.74v22.09c0,0.85,0.05,1.52,0.14,2.03c0.09,0.5,0.24,0.9,0.43,1.2
	c0.2,0.3,0.47,0.54,0.79,0.69c0.33,0.17,0.85,0.33,1.55,0.49v1.06H92.3v-1.06c0.39-0.09,0.77-0.2,1.14-0.32
	c0.29-0.09,0.56-0.24,0.81-0.42c0.22-0.17,0.39-0.39,0.52-0.64c0.14-0.26,0.24-0.61,0.32-1.06s0.12-1.1,0.12-1.96V30.18h-2.72
	c-0.68,0-1.23,0.06-1.67,0.19c-0.44,0.13-0.85,0.4-1.22,0.81c-0.37,0.41-0.72,0.99-1.03,1.75c-0.31,0.76-0.6,1.71-0.87,2.86h-2.14
	v-7.51h23.35v7.51h-2.11C106.48,34.55,106.17,33.57,105.86,32.85z"/>
<path id="ИТ_copy" class="st3" d="M137.21,57.73v-1.06c-1.05-0.26-1.73-0.61-2.04-1.06c-0.31-0.45-0.46-1.53-0.46-3.26V33.69
	c0-1.87,0.18-3,0.53-3.4s1.01-0.72,1.97-0.96v-1.06h-8.98v1.06c1.08,0.29,1.77,0.66,2.06,1.12c0.29,0.46,0.44,1.45,0.44,2.98
	l-12.28,15.12h-0.13c0.09-1.45,0.13-3.24,0.13-5.37v-9.49c0-1.87,0.18-3,0.53-3.4c0.35-0.4,1.01-0.72,1.97-0.96v-1.06h-9.02v1.06
	c0.95,0.23,1.61,0.54,1.99,0.93c0.37,0.39,0.56,1.53,0.56,3.43v18.66c0,1.65-0.15,2.71-0.44,3.18c-0.3,0.47-1,0.84-2.1,1.13v1.06
	h9.02v-1.06c-1.05-0.26-1.73-0.61-2.04-1.06c-0.31-0.45-0.46-1.53-0.46-3.26l12.28-15.12h0.09c-0.06,0.86-0.09,2.81-0.09,5.85v9.28
	c0,1.65-0.14,2.71-0.43,3.18s-0.98,0.84-2.07,1.13v1.06L137.21,57.73L137.21,57.73z M141.33,35.79h2.14
	c0.27-1.15,0.56-2.1,0.87-2.86c0.31-0.76,0.65-1.34,1.03-1.75c0.37-0.41,0.78-0.68,1.22-0.81s1-0.19,1.67-0.19h2.72v22.09
	c0,0.86-0.04,1.52-0.12,1.96c-0.08,0.45-0.19,0.8-0.32,1.06c-0.13,0.25-0.3,0.46-0.52,0.64c-0.24,0.18-0.52,0.33-0.81,0.42
	c-0.38,0.13-0.76,0.24-1.14,0.32v1.06h9.86v-1.06c-0.7-0.16-1.22-0.32-1.55-0.49c-0.32-0.16-0.59-0.39-0.79-0.69
	c-0.19-0.29-0.34-0.69-0.43-1.2c-0.09-0.5-0.14-1.18-0.14-2.03V30.18h2.74c0.79,0,1.38,0.08,1.78,0.24c0.43,0.18,0.81,0.45,1.11,0.8
	c0.35,0.37,0.67,0.92,0.98,1.64s0.62,1.7,0.94,2.93h2.11v-7.51h-23.35C141.33,28.28,141.33,35.79,141.33,35.79z"/>
</svg>
